<?xml version="1.0" standalone="no"?>
<!DOCTYPE svg PUBLIC "-//W3C//DTD SVG 20010904//EN"
 "http://www.w3.org/TR/2001/REC-SVG-20010904/DTD/svg10.dtd">
<svg version="1.0" xmlns="http://www.w3.org/2000/svg"
 width="256.000000pt" height="256.000000pt" viewBox="0 0 256.000000 256.000000"
 preserveAspectRatio="xMidYMid meet">
<metadata>
Created by potrace 1.11, written by Peter Selinger 2001-2013
</metadata>
<g transform="translate(0.000000,256.000000) scale(0.100000,-0.100000)"
fill="#000000" stroke="none">
<path d="M1637 2323 c-2 -1 -58 -5 -126 -8 l-123 -5 -82 -57 c-44 -31 -101
-72 -125 -90 -24 -18 -52 -33 -62 -33 -24 0 -243 81 -247 92 -2 4 -8 6 -12 3
-5 -3 -37 6 -72 20 -59 24 -69 25 -186 19 -68 -3 -131 -7 -140 -9 -10 -2 -23
-4 -31 -4 -10 -1 -11 -4 -2 -14 6 -8 7 -18 3 -23 -4 -5 -3 -6 1 -2 10 7 184
-162 180 -174 -2 -5 3 -7 10 -5 6 1 11 -5 9 -13 -2 -8 0 -12 4 -7 4 4 16 -1
26 -10 25 -22 108 -45 108 -29 0 7 3 7 8 1 4 -5 22 -11 41 -12 19 -1 38 -8 42
-15 7 -10 9 -10 9 1 0 11 4 11 18 -2 14 -13 21 -14 30 -5 8 8 19 7 44 -3 38
-15 60 -34 51 -43 -4 -3 -1 -6 5 -6 17 0 15 -113 -3 -180 -8 -30 -24 -67 -36
-83 -14 -19 -22 -46 -23 -80 -3 -58 -29 -123 -56 -137 -18 -9 -33 -43 -45 -94
-12 -58 -94 -165 -152 -199 -17 -10 -84 13 -76 26 4 6 1 7 -6 3 -7 -5 -20 -1
-29 7 -9 8 -51 29 -92 47 -41 18 -77 36 -80 40 -10 14 -107 31 -255 45 -123
11 -145 13 -145 8 0 -10 59 -60 65 -55 3 3 5 -2 5 -12 0 -10 5 -14 11 -11 6 4
18 0 27 -9 15 -15 107 -77 122 -82 3 -1 15 -5 27 -9 13 -4 20 -11 18 -16 -3
-4 4 -6 15 -4 11 2 20 0 20 -5 0 -5 7 -7 15 -4 8 4 15 1 15 -6 0 -6 4 -8 10
-5 5 3 20 0 32 -7 13 -7 25 -13 28 -13 35 -5 60 -18 54 -27 -5 -7 -3 -8 5 -4
18 11 73 -14 67 -30 -3 -7 -1 -16 4 -19 4 -3 14 -38 21 -78 7 -39 13 -74 14
-77 1 -3 5 -27 10 -55 4 -27 9 -59 11 -70 2 -11 9 -49 15 -85 12 -65 33 -120
47 -120 16 0 62 -52 56 -62 -4 -6 -3 -8 3 -5 14 9 65 -32 57 -45 -5 -7 -2 -8
5 -4 7 5 20 1 29 -8 103 -97 122 -110 137 -86 4 6 10 8 15 5 5 -3 11 -1 15 5
4 6 11 8 16 4 5 -3 6 -10 3 -16 -4 -7 -2 -8 5 -4 6 4 9 11 6 16 -8 13 22 19
35 7 10 -9 11 -9 6 1 -8 13 48 42 85 45 11 1 19 4 19 8 0 4 9 9 20 12 11 3 20
1 20 -4 0 -5 5 -9 10 -9 6 0 9 5 8 11 -2 6 7 15 20 20 13 5 22 5 22 -1 0 -6 4
-10 10 -10 5 0 7 7 4 15 -5 11 -2 13 10 9 9 -3 16 -2 16 3 0 9 85 37 97 32 4
-2 7 -8 5 -12 -1 -5 2 -6 7 -2 6 3 8 12 4 21 -4 12 0 11 25 -3 27 -15 33 -16
44 -4 11 11 11 13 -1 6 -7 -4 -16 -3 -20 3 -17 28 -163 128 -268 183 -23 12
-40 25 -38 29 2 4 -2 7 -9 7 -15 0 -139 73 -144 85 -2 4 -9 8 -15 8 -13 0 -67
43 -67 54 0 3 -9 15 -20 26 -11 11 -20 27 -20 35 0 8 -4 15 -10 15 -5 0 -10 4
-10 9 0 5 9 7 20 4 11 -3 20 -11 20 -19 0 -7 4 -16 10 -19 5 -3 7 0 4 8 -4 11
1 13 20 10 14 -3 26 -10 26 -15 0 -5 5 -6 10 -3 6 3 10 1 10 -5 0 -6 5 -8 10
-5 6 3 10 2 10 -4 0 -5 9 -8 20 -6 13 3 20 -2 21 -13 0 -10 3 -12 6 -5 3 10 9
10 26 0 12 -7 25 -16 28 -20 3 -5 10 -9 15 -9 20 -1 96 -42 90 -49 -2 -2 12
-5 32 -6 l37 -3 -25 20 c-14 11 -22 20 -18 20 10 0 -41 50 -52 50 -5 0 -15 6
-22 13 -7 7 -26 18 -41 25 -15 6 -25 17 -22 22 3 6 -1 7 -10 4 -9 -4 -25 2
-36 12 -12 11 -24 18 -28 18 -15 -3 -30 9 -24 19 3 6 1 7 -5 3 -15 -9 -93 34
-85 47 3 6 1 7 -5 3 -6 -4 -29 3 -50 15 -38 22 -38 23 -19 42 18 18 19 18 33
0 14 -17 14 -16 4 5 -9 19 -8 23 15 32 15 6 33 10 41 10 8 0 14 5 14 10 0 6 7
10 16 10 9 0 13 -5 9 -12 -4 -7 -1 -6 7 2 7 9 19 15 26 14 6 -1 17 -2 23 -3 5
0 7 -6 3 -13 -4 -7 -3 -8 5 -4 6 4 9 11 6 16 -2 4 9 13 25 20 25 10 33 10 48
-2 20 -17 74 -42 85 -40 4 1 7 -3 7 -8 0 -6 6 -10 13 -9 34 4 32 7 113 -166
21 -44 38 -82 39 -85 16 -54 40 -80 110 -117 33 -17 81 -42 107 -56 26 -14 44
-28 40 -31 -3 -4 1 -4 11 0 11 4 17 1 17 -7 0 -7 3 -10 6 -6 3 3 26 -6 50 -19
24 -14 44 -21 44 -17 0 4 5 1 10 -7 8 -12 10 -12 10 -1 0 8 7 11 20 8 11 -3
18 -1 15 3 -7 11 31 23 45 15 5 -3 10 -1 10 5 0 6 5 8 10 5 6 -3 10 -1 10 5 0
6 5 8 10 5 6 -3 10 -2 10 3 0 5 7 9 15 10 8 1 22 3 30 4 8 1 15 6 15 11 0 5 9
7 20 4 11 -3 20 0 20 6 0 7 5 5 10 -3 8 -13 10 -12 10 3 0 10 4 16 9 12 5 -3
16 1 24 9 11 11 17 12 27 3 8 -7 10 -8 7 -1 -4 7 11 16 36 24 23 8 48 18 56
24 12 9 13 8 6 -4 -6 -11 -4 -11 11 2 10 9 26 18 34 20 8 2 18 8 22 13 5 6 8
5 8 -2 0 -8 15 -13 42 -13 23 0 38 4 32 8 -11 9 -98 47 -179 78 -11 4 -31 8
-45 9 -54 4 -61 5 -55 15 3 5 0 7 -8 4 -13 -5 -278 94 -317 118 -17 11 -16 48
2 48 5 0 7 3 5 8 -3 4 0 18 6 32 5 14 11 31 13 39 1 8 6 17 11 20 4 3 9 17 11
31 1 13 7 27 14 31 6 4 8 11 4 17 -3 5 1 15 9 22 7 6 12 17 9 24 -8 21 22 44
50 39 14 -3 24 -8 22 -12 -3 -4 8 -6 22 -5 36 2 53 -6 45 -20 -4 -6 1 -5 10 3
13 11 17 11 17 1 0 -8 3 -11 6 -7 5 5 87 -15 124 -30 16 -7 24 -9 78 -19 18
-4 40 -16 50 -28 9 -13 23 -21 30 -18 6 2 12 -1 12 -8 0 -6 5 -8 10 -5 6 3 16
3 23 -2 14 -9 19 -10 48 -12 11 0 18 -5 15 -9 -3 -5 8 -6 25 -4 16 2 29 0 29
-5 0 -6 11 -8 25 -5 24 4 23 6 -20 34 -42 28 -91 97 -80 112 3 3 2 4 -1 1 -11
-8 -65 75 -58 88 4 7 4 9 -1 5 -10 -9 -106 122 -98 135 3 6 1 7 -5 3 -7 -4
-12 -3 -12 3 0 18 -50 65 -73 68 -12 2 -47 8 -77 15 -30 6 -64 12 -75 14 -11
2 -31 5 -45 9 -14 3 -41 8 -60 11 -19 3 -46 8 -60 10 -14 3 -30 6 -35 6 -6 1
-66 -20 -133 -45 -67 -26 -127 -47 -133 -47 -6 0 -27 14 -47 31 -33 29 -86 57
-122 64 -8 2 -15 4 -15 5 0 1 -8 3 -18 5 -25 5 -47 25 -47 42 0 8 -4 11 -10 8
-9 -5 -12 1 -9 21 0 4 -3 10 -8 13 -4 3 -15 15 -23 25 -13 17 -13 18 -1 11 8
-5 5 6 -8 23 -12 18 -18 32 -12 32 6 0 11 5 11 11 0 5 -5 7 -11 3 -8 -5 -10 3
-7 25 3 18 1 34 -4 37 -5 3 -5 11 -1 17 8 12 9 17 12 38 0 5 5 8 10 5 11 -7 9
-25 -4 -46 -7 -13 -6 -13 7 -2 9 7 15 22 13 32 -3 17 1 18 36 15 22 -2 44 -7
49 -10 6 -3 10 0 10 7 0 8 3 9 8 2 4 -5 24 -10 45 -9 20 1 37 -1 37 -5 0 -3
19 -4 43 -2 31 2 38 0 27 -7 -12 -8 -11 -10 7 -8 12 0 19 5 17 9 -3 4 0 8 5 8
6 0 11 -5 11 -11 0 -8 5 -8 15 1 10 9 15 9 15 1 0 -6 6 -10 13 -9 6 2 11 -2
10 -9 -3 -14 23 -11 38 4 12 12 42 6 34 -6 -2 -4 2 -8 10 -8 8 0 14 3 13 6 -2
19 4 22 19 10 14 -12 16 -12 8 0 -6 11 -3 13 13 9 12 -4 20 -2 16 3 -3 5 6 9
20 9 26 0 37 19 14 22 -14 1 -30 5 -38 8 -3 1 -21 3 -40 5 -124 12 -154 22
-65 22 30 0 55 -4 55 -9 0 -4 5 -8 11 -8 5 0 8 4 5 8 -4 7 27 8 44 2 3 -1 13
-2 23 -1 9 1 17 -4 17 -11 0 -8 3 -9 8 -3 9 12 44 16 36 4 -3 -5 0 -9 5 -9 6
0 11 6 11 13 0 8 4 7 10 -3 7 -11 10 -11 10 -2 0 7 5 10 11 7 5 -4 36 -7 67
-8 31 0 60 -5 63 -10 4 -5 12 -6 19 -2 7 5 31 10 53 12 22 2 43 6 46 9 8 8
-21 24 -46 24 -23 0 -48 32 -35 45 4 5 2 5 -5 1 -7 -4 -28 17 -54 56 -24 35
-51 72 -61 82 -10 11 -18 23 -18 26 0 6 -12 22 -50 67 -5 7 -10 15 -10 18 0 3
-10 15 -22 28 -19 18 -34 22 -86 22 -34 1 -64 0 -65 -2z m-47 -427 c0 -11 -19
-15 -25 -6 -3 5 1 10 9 10 9 0 16 -2 16 -4z"/>
<path d="M2015 1920 c3 -5 8 -10 11 -10 2 0 4 5 4 10 0 6 -5 10 -11 10 -5 0
-7 -4 -4 -10z"/>
<path d="M1835 1240 c3 -5 8 -10 11 -10 2 0 4 5 4 10 0 6 -5 10 -11 10 -5 0
-7 -4 -4 -10z"/>
<path d="M2276 698 c3 -5 10 -6 15 -3 13 9 11 12 -6 12 -8 0 -12 -4 -9 -9z"/>
<path d="M2114 662 c4 -3 14 -7 22 -8 9 -1 13 0 10 4 -4 3 -14 7 -22 8 -9 1
-13 0 -10 -4z"/>
<path d="M1119 313 c-13 -16 -12 -17 4 -4 9 7 17 15 17 17 0 8 -8 3 -21 -13z"/>
</g>
</svg>
